<svg width="40" height="40" viewBox="0 0 40 40" fill="none" xmlns="http://www.w3.org/2000/svg">
<path d="M20 21.6667C21.6111 21.6667 22.9861 21.0972 24.125 19.9583C25.2639 18.8194 25.8333 17.4444 25.8333 15.8333C25.8333 14.2222 25.2639 12.8472 24.125 11.7083C22.9861 10.5694 21.6111 10 20 10C18.3889 10 17.0139 10.5694 15.875 11.7083C14.7361 12.8472 14.1667 14.2222 14.1667 15.8333C14.1667 17.4444 14.7361 18.8194 15.875 19.9583C17.0139 21.0972 18.3889 21.6667 20 21.6667ZM8.33333 35C7.41667 35 6.63167 34.6739 5.97833 34.0217C5.32611 33.3683 5 32.5833 5 31.6667V8.33333C5 7.41667 5.32611 6.63167 5.97833 5.97833C6.63167 5.32611 7.41667 5 8.33333 5H31.6667C32.5833 5 33.3683 5.32611 34.0217 5.97833C34.6739 6.63167 35 7.41667 35 8.33333V31.6667C35 32.5833 34.6739 33.3683 34.0217 34.0217C33.3683 34.6739 32.5833 35 31.6667 35H8.33333ZM8.33333 31.6667H31.6667V29.75C30.1667 28.2778 28.4239 27.1178 26.4383 26.27C24.4517 25.4233 22.3056 25 20 25C17.6944 25 15.5489 25.4233 13.5633 26.27C11.5767 27.1178 9.83333 28.2778 8.33333 29.75V31.6667Z" fill="black"/>
</svg>
