<svg width="50" height="40" viewBox="0 0 50 40" fill="none" xmlns="http://www.w3.org/2000/svg">
<path d="M22.9168 15H27.0835V9.99996H33.3335V6.66663H27.0835V1.66663H22.9168V6.66663H16.6668V9.99996H22.9168V15ZM14.5835 30C12.2918 30 10.4377 31.5 10.4377 33.3333C10.4377 35.1666 12.2918 36.6666 14.5835 36.6666C16.8752 36.6666 18.7502 35.1666 18.7502 33.3333C18.7502 31.5 16.8752 30 14.5835 30ZM35.4168 30C33.1252 30 31.271 31.5 31.271 33.3333C31.271 35.1666 33.1252 36.6666 35.4168 36.6666C37.7085 36.6666 39.5835 35.1666 39.5835 33.3333C39.5835 31.5 37.7085 30 35.4168 30ZM16.8752 21.6666H32.396C33.9585 21.6666 35.3335 20.9833 36.0418 19.95L44.0835 8.26663L40.4377 6.66663L32.396 18.3333H17.771L8.896 3.33329H2.0835V6.66663H6.25016L13.7502 19.3166L10.9377 23.3833C9.41683 25.6166 11.4168 28.3333 14.5835 28.3333H39.5835V25H14.5835L16.8752 21.6666Z" fill="black"/>
</svg>
