<svg width="24" height="24" viewBox="0 0 24 24" fill="none" xmlns="http://www.w3.org/2000/svg">
<path d="M20.6999 16.4906C20.1468 15.5344 19.4812 13.7156 19.4812 10.5V9.83438C19.4812 5.68125 16.1531 2.27813 12.0562 2.25H11.9999C11.0162 2.25123 10.0424 2.4462 9.1341 2.82378C8.22577 3.20135 7.4007 3.75414 6.706 4.45058C6.0113 5.14702 5.46058 5.97347 5.08528 6.88275C4.70998 7.79202 4.51744 8.76632 4.51868 9.75V10.5C4.51868 13.7156 3.85305 15.5344 3.29993 16.4906C3.16615 16.7185 3.09495 16.9777 3.09353 17.2419C3.0921 17.5061 3.1605 17.7661 3.29181 17.9954C3.42311 18.2247 3.61266 18.4152 3.84127 18.5477C4.06988 18.6803 4.32944 18.75 4.59368 18.75H8.24993C8.24993 19.7446 8.64501 20.6984 9.34828 21.4016C10.0515 22.1049 11.0054 22.5 11.9999 22.5C12.9945 22.5 13.9483 22.1049 14.6516 21.4016C15.3548 20.6984 15.7499 19.7446 15.7499 18.75H19.4062C19.6704 18.7517 19.9303 18.6831 20.1592 18.5513C20.3882 18.4196 20.578 18.2293 20.7093 18C20.8394 17.7694 20.907 17.5088 20.9054 17.2441C20.9038 16.9793 20.8329 16.7196 20.6999 16.4906ZM11.9999 21C11.4039 20.9975 10.8331 20.7597 10.4117 20.3383C9.99024 19.9168 9.75239 19.346 9.74993 18.75H14.2499C14.2475 19.346 14.0096 19.9168 13.5882 20.3383C13.1668 20.7597 12.5959 20.9975 11.9999 21Z" fill="black"/>
</svg>
