<svg width="32" height="32" viewBox="0 0 32 32" fill="none" xmlns="http://www.w3.org/2000/svg">
<path d="M27 22.141V18C27 17.4696 26.7893 16.9609 26.4142 16.5858C26.0392 16.2107 25.5304 16 25 16H17V12H19C19.5303 11.9995 20.0387 11.7886 20.4136 11.4136C20.7886 11.0387 20.9995 10.5303 21 10V4C20.9995 3.46973 20.7886 2.96133 20.4136 2.58637C20.0387 2.21141 19.5303 2.00053 19 2H13C12.4697 2.00053 11.9613 2.21141 11.5864 2.58637C11.2114 2.96133 11.0005 3.46973 11 4V10C11.0005 10.5303 11.2114 11.0387 11.5864 11.4136C11.9613 11.7886 12.4697 11.9995 13 12H15V16H7.00001C6.46958 16 5.96087 16.2107 5.5858 16.5858C5.21072 16.9609 5.00001 17.4696 5.00001 18V22.142C4.05735 22.3854 3.23582 22.9642 2.68941 23.77C2.143 24.5758 1.90922 25.5532 2.03189 26.519C2.15457 27.4848 2.62527 28.3727 3.35578 29.0163C4.08628 29.6599 5.02644 30.015 6.00001 30.015C6.97358 30.015 7.91374 29.6599 8.64424 29.0163C9.37475 28.3727 9.84545 27.4848 9.96813 26.519C10.0908 25.5532 9.85702 24.5758 9.31061 23.77C8.7642 22.9642 7.94267 22.3854 7.00001 22.142V18H15V22.142C14.0574 22.3854 13.2358 22.9642 12.6894 23.77C12.143 24.5758 11.9092 25.5532 12.0319 26.519C12.1546 27.4848 12.6253 28.3727 13.3558 29.0163C14.0863 29.6599 15.0264 30.015 16 30.015C16.9736 30.015 17.9137 29.6599 18.6442 29.0163C19.3747 28.3727 19.8455 27.4848 19.9681 26.519C20.0908 25.5532 19.857 24.5758 19.3106 23.77C18.7642 22.9642 17.9427 22.3854 17 22.142V18H25V22.141C24.0574 22.3844 23.2358 22.9632 22.6894 23.769C22.143 24.5748 21.9092 25.5522 22.0319 26.518C22.1546 27.4838 22.6253 28.3717 23.3558 29.0153C24.0863 29.6589 25.0264 30.014 26 30.014C26.9736 30.014 27.9137 29.6589 28.6442 29.0153C29.3747 28.3717 29.8455 27.4838 29.9681 26.518C30.0908 25.5522 29.857 24.5748 29.3106 23.769C28.7642 22.9632 27.9427 22.3844 27 22.141ZM13 4H19L19.001 10H13V4ZM8.00001 26C8.00001 26.3956 7.88271 26.7822 7.66295 27.1111C7.44319 27.44 7.13083 27.6964 6.76538 27.8478C6.39992 27.9991 5.99779 28.0387 5.60983 27.9616C5.22187 27.8844 4.8655 27.6939 4.5858 27.4142C4.30609 27.1345 4.11561 26.7781 4.03844 26.3902C3.96127 26.0022 4.00087 25.6001 4.15225 25.2346C4.30363 24.8692 4.55997 24.5568 4.88887 24.3371C5.21777 24.1173 5.60445 24 6.00001 24C6.53028 24.0005 7.03868 24.2114 7.41364 24.5864C7.7886 24.9613 7.99948 25.4697 8.00001 26ZM18 26C18 26.3956 17.8827 26.7822 17.6629 27.1111C17.4432 27.44 17.1308 27.6964 16.7654 27.8478C16.3999 27.9991 15.9978 28.0387 15.6098 27.9616C15.2219 27.8844 14.8655 27.6939 14.5858 27.4142C14.3061 27.1345 14.1156 26.7781 14.0384 26.3902C13.9613 26.0022 14.0009 25.6001 14.1523 25.2346C14.3036 24.8692 14.56 24.5568 14.8889 24.3371C15.2178 24.1173 15.6044 24 16 24C16.5302 24.0008 17.0384 24.2118 17.4133 24.5867C17.7882 24.9616 17.9992 25.4698 18 26ZM26 28C25.6044 28 25.2178 27.8827 24.8889 27.6629C24.56 27.4432 24.3036 27.1308 24.1523 26.7654C24.0009 26.3999 23.9613 25.9978 24.0384 25.6098C24.1156 25.2219 24.3061 24.8655 24.5858 24.5858C24.8655 24.3061 25.2219 24.1156 25.6098 24.0384C25.9978 23.9613 26.3999 24.0009 26.7654 24.1522C27.1308 24.3036 27.4432 24.56 27.6629 24.8889C27.8827 25.2178 28 25.6044 28 26C27.9995 26.5303 27.7886 27.0387 27.4136 27.4136C27.0387 27.7886 26.5303 27.9995 26 28Z" fill="black"/>
</svg>
