<svg width="40" height="40" viewBox="0 0 40 40" fill="none" xmlns="http://www.w3.org/2000/svg">
<path d="M11.6667 36.6666C10.7501 36.6666 9.96564 36.3405 9.31341 35.6883C8.66008 35.035 8.33341 34.25 8.33341 33.3333C8.33341 32.4166 8.66008 31.6316 9.31341 30.9783C9.96564 30.3261 10.7501 30 11.6667 30C12.5834 30 13.3679 30.3261 14.0201 30.9783C14.6734 31.6316 15.0001 32.4166 15.0001 33.3333C15.0001 34.25 14.6734 35.035 14.0201 35.6883C13.3679 36.3405 12.5834 36.6666 11.6667 36.6666ZM28.3334 36.6666C27.4167 36.6666 26.6323 36.3405 25.9801 35.6883C25.3267 35.035 25.0001 34.25 25.0001 33.3333C25.0001 32.4166 25.3267 31.6316 25.9801 30.9783C26.6323 30.3261 27.4167 30 28.3334 30C29.2501 30 30.0351 30.3261 30.6884 30.9783C31.3406 31.6316 31.6667 32.4166 31.6667 33.3333C31.6667 34.25 31.3406 35.035 30.6884 35.6883C30.0351 36.3405 29.2501 36.6666 28.3334 36.6666ZM11.6667 28.3333C10.4167 28.3333 9.4723 27.7844 8.83342 26.6866C8.19453 25.59 8.16675 24.5 8.75008 23.4166L11.0001 19.3333L5.00008 6.66665H3.29175C2.81953 6.66665 2.43064 6.50665 2.12508 6.18665C1.81953 5.86776 1.66675 5.4722 1.66675 4.99998C1.66675 4.52776 1.82675 4.13165 2.14675 3.81165C2.46564 3.49276 2.86119 3.33331 3.33341 3.33331H6.04175C6.3473 3.33331 6.63897 3.41665 6.91675 3.58331C7.19453 3.74998 7.40286 3.98609 7.54175 4.29165L8.66675 6.66665H33.2501C34.0001 6.66665 34.514 6.94442 34.7917 7.49998C35.0695 8.05554 35.0556 8.63887 34.7501 9.24998L28.8334 19.9166C28.5279 20.4722 28.1251 20.9028 27.6251 21.2083C27.1251 21.5139 26.5556 21.6666 25.9167 21.6666H13.5001L11.6667 25H30.0417C30.514 25 30.9029 25.1594 31.2084 25.4783C31.514 25.7983 31.6667 26.1944 31.6667 26.6666C31.6667 27.1389 31.5067 27.5344 31.1867 27.8533C30.8679 28.1733 30.4723 28.3333 30.0001 28.3333H11.6667Z" fill="black"/>
</svg>
