<svg width="84" height="84" viewBox="0 0 84 84" fill="none" xmlns="http://www.w3.org/2000/svg">
<path d="M52.6247 60.9585L58.458 55.021L46.1663 42.7293V25.3335H37.833V46.1668L52.6247 60.9585ZM37.833 17.0002H46.1663V8.66683H37.833V17.0002ZM66.9997 46.1668H75.333V37.8335H66.9997V46.1668ZM37.833 75.3335H46.1663V67.0002H37.833V75.3335ZM8.66634 46.1668H16.9997V37.8335H8.66634V46.1668ZM41.9997 83.6668C36.2358 83.6668 30.8191 82.5724 25.7497 80.3835C20.6802 78.1974 16.2705 75.2293 12.5205 71.4793C8.77051 67.7293 5.80245 63.3196 3.61634 58.2502C1.42745 53.1807 0.333008 47.7641 0.333008 42.0002C0.333008 36.2363 1.42745 30.8196 3.61634 25.7502C5.80245 20.6807 8.77051 16.271 12.5205 12.521C16.2705 8.771 20.6802 5.80155 25.7497 3.61266C30.8191 1.42655 36.2358 0.333496 41.9997 0.333496C47.7636 0.333496 53.1802 1.42655 58.2497 3.61266C63.3191 5.80155 67.7288 8.771 71.4788 12.521C75.2288 16.271 78.1969 20.6807 80.383 25.7502C82.5719 30.8196 83.6663 36.2363 83.6663 42.0002C83.6663 47.7641 82.5719 53.1807 80.383 58.2502C78.1969 63.3196 75.2288 67.7293 71.4788 71.4793C67.7288 75.2293 63.3191 78.1974 58.2497 80.3835C53.1802 82.5724 47.7636 83.6668 41.9997 83.6668Z" fill="#F7922F"/>
</svg>
