<svg width="16" height="18" viewBox="0 0 16 18" fill="none" xmlns="http://www.w3.org/2000/svg">
<path d="M15.115 1.00382C14.9994 0.882295 14.862 0.785884 14.7108 0.720104C14.5596 0.654323 14.3975 0.620463 14.2338 0.620463C14.0701 0.620463 13.908 0.654323 13.7567 0.720104C13.6055 0.785884 13.4682 0.882295 13.3525 1.00382L7.24002 7.4008L1.12753 0.990707C1.0118 0.869345 0.87441 0.773076 0.723205 0.707396C0.572 0.641715 0.409939 0.60791 0.246276 0.60791C0.0826125 0.60791 -0.0794486 0.641715 -0.230654 0.707396C-0.381859 0.773076 -0.519247 0.869345 -0.634975 0.990707C-0.750702 1.11207 -0.842502 1.25615 -0.905133 1.41471C-0.967764 1.57328 -1 1.74323 -1 1.91486C-1 2.08649 -0.967764 2.25644 -0.905133 2.41501C-0.842502 2.57358 -0.750702 2.71765 -0.634975 2.83902L5.47753 9.2491L-0.634975 15.6592C-0.750702 15.7806 -0.842502 15.9246 -0.905133 16.0832C-0.967764 16.2418 -1 16.4117 -1 16.5833C-1 16.755 -0.967764 16.9249 -0.905133 17.0835C-0.842502 17.2421 -0.750702 17.3861 -0.634975 17.5075C-0.519247 17.6289 -0.381859 17.7251 -0.230654 17.7908C-0.0794486 17.8565 0.0826125 17.8903 0.246276 17.8903C0.409939 17.8903 0.572 17.8565 0.723205 17.7908C0.87441 17.7251 1.0118 17.6289 1.12753 17.5075L7.24002 11.0974L13.3525 17.5075C13.4683 17.6289 13.6056 17.7251 13.7568 17.7908C13.9081 17.8565 14.0701 17.8903 14.2338 17.8903C14.3974 17.8903 14.5595 17.8565 14.7107 17.7908C14.8619 17.7251 14.9993 17.6289 15.115 17.5075C15.2307 17.3861 15.3225 17.2421 15.3852 17.0835C15.4478 16.9249 15.48 16.755 15.48 16.5833C15.48 16.4117 15.4478 16.2418 15.3852 16.0832C15.3225 15.9246 15.2307 15.7806 15.115 15.6592L9.00252 9.2491L15.115 2.83902C15.59 2.34089 15.59 1.50194 15.115 1.00382Z" fill="black"/>
</svg>
