<svg width="85" height="64" viewBox="0 0 85 64" fill="none" xmlns="http://www.w3.org/2000/svg">
<path d="M67.7802 24.5622C66.6045 17.8678 63.3968 11.8398 58.7049 7.50758C54.013 3.17541 48.1281 0.807906 42.0552 0.809449C31.9402 0.809449 23.1552 7.25886 18.7802 16.697C13.636 17.3216 8.8787 20.0602 5.42239 24.3865C1.96607 28.7127 0.0545748 34.3215 0.0551759 40.1351C0.0551759 53.152 9.47018 63.7306 21.0552 63.7306H66.5552C76.2152 63.7306 84.0552 54.9216 84.0552 44.0677C84.0552 33.6857 76.8802 25.27 67.7802 24.5622ZM49.0552 36.2026V51.9329H35.0552V36.2026H24.5552L40.8302 17.9161C41.5302 17.1296 42.6152 17.1296 43.3152 17.9161L59.5552 36.2026H49.0552Z" fill="black"/>
</svg>
