<svg width="25" height="25" viewBox="0 0 25 25" fill="none" xmlns="http://www.w3.org/2000/svg">
<path d="M23.5 12.5C23.1333 12.5 22.807 12.368 22.521 12.104C22.2341 11.8409 22.0677 11.5146 22.0219 11.125C21.724 8.99375 20.8247 7.17738 19.3241 5.67588C17.8226 4.17529 16.0063 3.27604 13.875 2.97812C13.4854 2.93229 13.1591 2.77187 12.896 2.49687C12.632 2.22187 12.5 1.88958 12.5 1.5C12.5 1.11042 12.6375 0.783625 12.9125 0.519625C13.1875 0.256542 13.5083 0.147917 13.875 0.19375C16.7625 0.514583 19.226 1.69479 21.2656 3.73438C23.3052 5.77396 24.4854 8.2375 24.8063 11.125C24.8521 11.4917 24.743 11.8125 24.479 12.0875C24.2159 12.3625 23.8896 12.5 23.5 12.5ZM17.7594 12.5C17.4615 12.5 17.1979 12.3969 16.9688 12.1906C16.7396 11.9844 16.5677 11.7094 16.4531 11.3656C16.2698 10.701 15.9205 10.1107 15.4054 9.59463C14.8893 9.07946 14.299 8.73021 13.6344 8.54688C13.2906 8.43229 13.0156 8.26042 12.8094 8.03125C12.6031 7.80208 12.5 7.52708 12.5 7.20625C12.5 6.74792 12.6604 6.37529 12.9813 6.08838C13.3021 5.80237 13.6573 5.70521 14.0469 5.79688C15.3302 6.09479 16.4362 6.70758 17.3647 7.63525C18.2924 8.56383 18.9052 9.66979 19.2031 10.9531C19.2948 11.3427 19.1917 11.6979 18.8937 12.0187C18.5958 12.3396 18.2177 12.5 17.7594 12.5ZM23.4313 24.875C20.475 24.875 17.5935 24.2159 14.7866 22.8978C11.9789 21.5805 9.49242 19.8388 7.32725 17.6728C5.16117 15.5076 3.4195 13.0211 2.10225 10.2134C0.784084 7.40654 0.125 4.525 0.125 1.56875C0.125 1.15625 0.2625 0.8125 0.5375 0.5375C0.8125 0.2625 1.15625 0.125 1.56875 0.125H7.1375C7.45833 0.125 7.74479 0.228125 7.99688 0.434375C8.24896 0.640625 8.39792 0.904167 8.44375 1.225L9.3375 6.0375C9.38333 6.35833 9.37783 6.65029 9.321 6.91337C9.26325 7.17737 9.13125 7.4125 8.925 7.61875L5.625 10.9875C6.5875 12.6375 7.79063 14.1844 9.23438 15.6281C10.6781 17.0719 12.2708 18.3208 14.0125 19.375L17.2437 16.1437C17.45 15.9375 17.7195 15.7826 18.0522 15.679C18.3841 15.5763 18.7104 15.5479 19.0312 15.5938L23.775 16.5562C24.0958 16.625 24.3594 16.7795 24.5656 17.0196C24.7719 17.2607 24.875 17.5417 24.875 17.8625V23.4313C24.875 23.8438 24.7375 24.1875 24.4625 24.4625C24.1875 24.7375 23.8438 24.875 23.4313 24.875Z" fill="black"/>
</svg>
