<svg width="42" height="42" viewBox="0 0 42 42" fill="none" xmlns="http://www.w3.org/2000/svg">
<path d="M21 11.4545C15.7309 11.4545 11.4545 15.7309 11.4545 21C11.4545 26.2691 15.7309 30.5455 21 30.5455C26.2691 30.5455 30.5455 26.2691 30.5455 21C30.5455 15.7309 26.2691 11.4545 21 11.4545ZM1.90909 22.9091H5.72727C6.77727 22.9091 7.63636 22.05 7.63636 21C7.63636 19.95 6.77727 19.0909 5.72727 19.0909H1.90909C0.859091 19.0909 0 19.95 0 21C0 22.05 0.859091 22.9091 1.90909 22.9091ZM36.2727 22.9091H40.0909C41.1409 22.9091 42 22.05 42 21C42 19.95 41.1409 19.0909 40.0909 19.0909H36.2727C35.2227 19.0909 34.3636 19.95 34.3636 21C34.3636 22.05 35.2227 22.9091 36.2727 22.9091ZM19.0909 1.90909V5.72727C19.0909 6.77727 19.95 7.63636 21 7.63636C22.05 7.63636 22.9091 6.77727 22.9091 5.72727V1.90909C22.9091 0.859091 22.05 0 21 0C19.95 0 19.0909 0.859091 19.0909 1.90909ZM19.0909 36.2727V40.0909C19.0909 41.1409 19.95 42 21 42C22.05 42 22.9091 41.1409 22.9091 40.0909V36.2727C22.9091 35.2227 22.05 34.3636 21 34.3636C19.95 34.3636 19.0909 35.2227 19.0909 36.2727ZM9.52636 6.83455C9.34975 6.65757 9.13996 6.51716 8.90901 6.42136C8.67806 6.32555 8.43048 6.27624 8.18045 6.27624C7.93042 6.27624 7.68285 6.32555 7.4519 6.42136C7.22095 6.51716 7.01116 6.65757 6.83455 6.83455C6.65757 7.01116 6.51716 7.22095 6.42136 7.4519C6.32555 7.68285 6.27624 7.93042 6.27624 8.18045C6.27624 8.43048 6.32555 8.67806 6.42136 8.90901C6.51716 9.13996 6.65757 9.34975 6.83455 9.52636L8.85818 11.55C9.60273 12.2945 10.8245 12.2945 11.55 11.55C12.2755 10.8055 12.2945 9.58364 11.55 8.85818L9.52636 6.83455ZM33.1418 30.45C32.9652 30.273 32.7554 30.1326 32.5245 30.0368C32.2935 29.941 32.0459 29.8917 31.7959 29.8917C31.5459 29.8917 31.2983 29.941 31.0674 30.0368C30.8364 30.1326 30.6266 30.273 30.45 30.45C30.273 30.6266 30.1326 30.8364 30.0368 31.0674C29.941 31.2983 29.8917 31.5459 29.8917 31.7959C29.8917 32.0459 29.941 32.2935 30.0368 32.5245C30.1326 32.7554 30.273 32.9652 30.45 33.1418L32.4736 35.1655C33.2182 35.91 34.44 35.91 35.1655 35.1655C35.3424 34.9888 35.4828 34.779 35.5786 34.5481C35.6744 34.3172 35.7238 34.0696 35.7238 33.8195C35.7238 33.5695 35.6744 33.3219 35.5786 33.091C35.4828 32.86 35.3424 32.6503 35.1655 32.4736L33.1418 30.45ZM35.1655 9.52636C35.3424 9.34975 35.4828 9.13996 35.5786 8.90901C35.6744 8.67806 35.7238 8.43048 35.7238 8.18045C35.7238 7.93042 35.6744 7.68285 35.5786 7.4519C35.4828 7.22095 35.3424 7.01116 35.1655 6.83455C34.9888 6.65757 34.779 6.51716 34.5481 6.42136C34.3172 6.32555 34.0696 6.27624 33.8195 6.27624C33.5695 6.27624 33.3219 6.32555 33.091 6.42136C32.86 6.51716 32.6503 6.65757 32.4736 6.83455L30.45 8.85818C29.7055 9.60273 29.7055 10.8245 30.45 11.55C31.1945 12.2755 32.4164 12.2945 33.1418 11.55L35.1655 9.52636ZM11.55 33.1418C11.727 32.9652 11.8674 32.7554 11.9632 32.5245C12.059 32.2935 12.1083 32.0459 12.1083 31.7959C12.1083 31.5459 12.059 31.2983 11.9632 31.0674C11.8674 30.8364 11.727 30.6266 11.55 30.45C11.3734 30.273 11.1636 30.1326 10.9326 30.0368C10.7017 29.941 10.4541 29.8917 10.2041 29.8917C9.95406 29.8917 9.70648 29.941 9.47554 30.0368C9.24459 30.1326 9.0348 30.273 8.85818 30.45L6.83455 32.4736C6.09 33.2182 6.09 34.44 6.83455 35.1655C7.57909 35.8909 8.80091 35.91 9.52636 35.1655L11.55 33.1418Z" fill="black"/>
</svg>
