<svg width="32" height="32" viewBox="0 0 32 32" fill="none" xmlns="http://www.w3.org/2000/svg">
<path d="M16 2.66666C23.364 2.66666 29.3334 8.636 29.3334 16C29.3334 23.364 23.364 29.3333 16 29.3333C8.63602 29.3333 2.66669 23.364 2.66669 16C2.66669 8.636 8.63602 2.66666 16 2.66666ZM16 5.33333C13.171 5.33333 10.4579 6.45714 8.45755 8.45752C6.45716 10.4579 5.33335 13.171 5.33335 16C5.33335 18.829 6.45716 21.5421 8.45755 23.5425C10.4579 25.5429 13.171 26.6667 16 26.6667C18.829 26.6667 21.5421 25.5429 23.5425 23.5425C25.5429 21.5421 26.6667 18.829 26.6667 16C26.6667 13.171 25.5429 10.4579 23.5425 8.45752C21.5421 6.45714 18.829 5.33333 16 5.33333ZM16 6.66666C17.3574 6.66666 18.6467 6.956 19.8107 7.47733L17.7267 9.56C16.3088 9.17912 14.8048 9.27696 13.4481 9.83833C12.0915 10.3997 10.9582 11.3932 10.224 12.6646C9.48977 13.9361 9.19582 15.4143 9.38774 16.8699C9.57966 18.3255 10.2467 19.677 11.2854 20.7147L9.40002 22.6L9.19202 22.3853C7.94646 21.0575 7.11645 19.3943 6.80422 17.6007C6.49198 15.807 6.71115 13.9612 7.43474 12.2906C8.15832 10.6199 9.35472 9.19737 10.8766 8.19811C12.3985 7.19885 14.1794 6.66652 16 6.66666ZM24.5227 12.1907C25.0427 13.3533 25.3334 14.644 25.3334 16C25.3348 17.2259 25.094 18.44 24.6249 19.5726C24.1559 20.7052 23.4677 21.734 22.6 22.6L20.7147 20.7147C21.5434 19.8876 22.1393 18.8566 22.4422 17.7256C22.7451 16.5947 22.7444 15.4039 22.44 14.2733L24.5227 12.1907ZM21.656 8.45733L23.5427 10.3427L18.5774 15.3107C18.6825 15.7058 18.6955 16.1198 18.6154 16.5208C18.5352 16.9217 18.364 17.2989 18.1149 17.6232C17.8659 17.9475 17.5456 18.2102 17.1789 18.3911C16.8123 18.5721 16.4089 18.6663 16 18.6667C15.6209 18.666 15.2463 18.5844 14.9011 18.4275C14.556 18.2706 14.2483 18.0419 13.9986 17.7566C13.7488 17.4714 13.5628 17.1361 13.4528 16.7733C13.3429 16.4105 13.3116 16.0283 13.361 15.6525C13.4104 15.2766 13.5394 14.9155 13.7394 14.5934C13.9394 14.2713 14.2057 13.9956 14.5207 13.7846C14.8357 13.5735 15.192 13.4321 15.566 13.3697C15.94 13.3073 16.3229 13.3254 16.6894 13.4227L21.6574 8.45733H21.656Z" fill="black"/>
</svg>
