<svg width="38" height="38" viewBox="0 0 38 38" fill="none" xmlns="http://www.w3.org/2000/svg">
<path d="M35.6719 0.25H2.32812C1.77824 0.254089 1.25203 0.474346 0.863187 0.863187C0.474346 1.25203 0.254089 1.77824 0.25 2.32812V35.6719C0.254089 36.2218 0.474346 36.748 0.863187 37.1368C1.25203 37.5257 1.77824 37.7459 2.32812 37.75H20.2812V23.25H15.4062V17.5781H20.2812V13.4063C20.2812 8.5625 23.2344 5.92188 27.5781 5.92188C29.0312 5.92188 30.4844 5.92187 31.9375 6.14062V11.1875H28.9531C26.5938 11.1875 26.1406 12.3125 26.1406 13.9531V17.5625H31.7656L31.0313 23.2344H26.1406V37.75H35.6719C36.2218 37.7459 36.748 37.5257 37.1368 37.1368C37.5257 36.748 37.7459 36.2218 37.75 35.6719V2.32812C37.7459 1.77824 37.5257 1.25203 37.1368 0.863187C36.748 0.474346 36.2218 0.254089 35.6719 0.25V0.25Z" fill="black"/>
</svg>
