<svg width="47" height="47" viewBox="0 0 47 47" fill="none" xmlns="http://www.w3.org/2000/svg">
<path d="M11.75 10.2812C11.3605 10.2812 10.9869 10.436 10.7114 10.7114C10.436 10.9869 10.2812 11.3605 10.2812 11.75V16.4911C10.2812 17.0754 10.0491 17.6358 9.63597 18.049C9.2228 18.4621 8.66243 18.6942 8.07812 18.6942C7.49382 18.6942 6.93345 18.4621 6.52028 18.049C6.10711 17.6358 5.875 17.0754 5.875 16.4911V11.75C5.875 10.1919 6.49397 8.69752 7.59575 7.59575C8.69752 6.49397 10.1919 5.875 11.75 5.875H16.4911C17.0754 5.875 17.6358 6.10711 18.049 6.52028C18.4621 6.93345 18.6942 7.49382 18.6942 8.07812C18.6942 8.66243 18.4621 9.2228 18.049 9.63597C17.6358 10.0491 17.0754 10.2812 16.4911 10.2812H11.75ZM28.3057 8.07812C28.3057 7.49382 28.5379 6.93345 28.951 6.52028C29.3642 6.10711 29.9246 5.875 30.5089 5.875H35.25C36.8081 5.875 38.3025 6.49397 39.4043 7.59575C40.506 8.69752 41.125 10.1919 41.125 11.75V16.4911C41.125 17.0754 40.8929 17.6358 40.4797 18.049C40.0666 18.4621 39.5062 18.6942 38.9219 18.6942C38.3376 18.6942 37.7772 18.4621 37.364 18.049C36.9509 17.6358 36.7188 17.0754 36.7188 16.4911V11.75C36.7188 11.3605 36.564 10.9869 36.2886 10.7114C36.0131 10.436 35.6395 10.2812 35.25 10.2812H30.5089C29.9246 10.2812 29.3642 10.0491 28.951 9.63597C28.5379 9.2228 28.3057 8.66243 28.3057 8.07812ZM8.07812 28.3057C8.66243 28.3057 9.2228 28.5379 9.63597 28.951C10.0491 29.3642 10.2812 29.9246 10.2812 30.5089V35.25C10.2812 35.6395 10.436 36.0131 10.7114 36.2886C10.9869 36.564 11.3605 36.7188 11.75 36.7188H16.4911C17.0754 36.7188 17.6358 36.9509 18.049 37.364C18.4621 37.7772 18.6942 38.3376 18.6942 38.9219C18.6942 39.5062 18.4621 40.0666 18.049 40.4797C17.6358 40.8929 17.0754 41.125 16.4911 41.125H11.75C10.1919 41.125 8.69752 40.506 7.59575 39.4043C6.49397 38.3025 5.875 36.8081 5.875 35.25V30.5089C5.875 29.9246 6.10711 29.3642 6.52028 28.951C6.93345 28.5379 7.49382 28.3057 8.07812 28.3057ZM38.9219 28.3057C39.5062 28.3057 40.0666 28.5379 40.4797 28.951C40.8929 29.3642 41.125 29.9246 41.125 30.5089V35.25C41.125 36.8081 40.506 38.3025 39.4043 39.4043C38.3025 40.506 36.8081 41.125 35.25 41.125H30.5089C29.9246 41.125 29.3642 40.8929 28.951 40.4797C28.5379 40.0666 28.3057 39.5062 28.3057 38.9219C28.3057 38.3376 28.5379 37.7772 28.951 37.364C29.3642 36.9509 29.9246 36.7188 30.5089 36.7188H35.25C35.6395 36.7188 36.0131 36.564 36.2886 36.2886C36.564 36.0131 36.7188 35.6395 36.7188 35.25V30.5089C36.7188 29.9246 36.9509 29.3642 37.364 28.951C37.7772 28.5379 38.3376 28.3057 38.9219 28.3057Z" fill="black"/>
</svg>
