<svg width="42" height="42" viewBox="0 0 42 42" fill="none" xmlns="http://www.w3.org/2000/svg">
<path d="M21 15.8332C19.9781 15.8332 18.9792 16.1362 18.1295 16.7039C17.2799 17.2716 16.6177 18.0786 16.2266 19.0226C15.8356 19.9667 15.7332 21.0056 15.9326 22.0078C16.132 23.01 16.624 23.9307 17.3466 24.6532C18.0692 25.3758 18.9898 25.8679 19.992 26.0672C20.9943 26.2666 22.0331 26.1643 22.9772 25.7732C23.9213 25.3822 24.7282 24.7199 25.2959 23.8703C25.8636 23.0206 26.1667 22.0217 26.1667 20.9998C26.1667 20.3213 26.033 19.6495 25.7734 19.0226C25.5137 18.3958 25.1331 17.8262 24.6534 17.3465C24.1736 16.8667 23.604 16.4861 22.9772 16.2265C22.3503 15.9668 21.6785 15.8332 21 15.8332ZM41.6875 10.729C41.6765 9.12017 41.3803 7.52603 40.8125 6.02067C40.3943 4.91913 39.7473 3.91878 38.9142 3.08564C38.081 2.2525 37.0807 1.6055 35.9792 1.18734C34.4738 0.619554 32.8797 0.323297 31.2708 0.312337C28.5833 0.166504 27.7917 0.166504 21 0.166504C14.2083 0.166504 13.4167 0.166504 10.7292 0.312337C9.12032 0.323297 7.52618 0.619554 6.02082 1.18734C4.91928 1.6055 3.91894 2.2525 3.08579 3.08564C2.25265 3.91878 1.60565 4.91913 1.18749 6.02067C0.619706 7.52603 0.32345 9.12017 0.31249 10.729C0.166656 13.4165 0.166656 14.2082 0.166656 20.9998C0.166656 27.7915 0.166656 28.5832 0.31249 31.2707C0.334915 32.8852 0.63077 34.4842 1.18749 35.9998C1.6038 37.0963 2.25026 38.0909 3.08332 38.9165C3.91289 39.7547 4.91538 40.4016 6.02082 40.8123C7.52618 41.3801 9.12032 41.6764 10.7292 41.6873C13.4167 41.8332 14.2083 41.8332 21 41.8332C27.7917 41.8332 28.5833 41.8332 31.2708 41.6873C32.8797 41.6764 34.4738 41.3801 35.9792 40.8123C37.0846 40.4016 38.0871 39.7547 38.9167 38.9165C39.7497 38.0909 40.3962 37.0963 40.8125 35.9998C41.3797 34.4871 41.6759 32.8862 41.6875 31.2707C41.8333 28.5832 41.8333 27.7915 41.8333 20.9998C41.8333 14.2082 41.8333 13.4165 41.6875 10.729ZM36.3958 27.3957C36.329 28.6813 36.0546 29.9477 35.5833 31.1457C35.1789 32.145 34.5776 33.0528 33.8153 33.8152C33.053 34.5775 32.1452 35.1787 31.1458 35.5832C29.9365 36.0282 28.6631 36.2744 27.375 36.3123H14.625C13.3369 36.2744 12.0635 36.0282 10.8542 35.5832C9.82104 35.1993 8.88807 34.5868 8.12499 33.7915C7.37013 33.0441 6.78717 32.1412 6.41666 31.1457C5.9699 29.9376 5.73042 28.6627 5.70832 27.3748V14.6248C5.73042 13.337 5.9699 12.0621 6.41666 10.854C6.80058 9.82089 7.41306 8.88791 8.20832 8.12484C8.95902 7.37405 9.86096 6.7917 10.8542 6.4165C12.0635 5.97152 13.3369 5.72527 14.625 5.68734H27.375C28.6631 5.72527 29.9365 5.97152 31.1458 6.4165C32.1789 6.80042 33.1119 7.41291 33.875 8.20817C34.6299 8.95556 35.2128 9.85845 35.5833 10.854C36.0283 12.0634 36.2746 13.3368 36.3125 14.6248V20.9998C36.3125 25.2915 36.4583 25.729 36.3958 27.3748V27.3957ZM33.0625 11.8957C32.8144 11.2227 32.4234 10.6116 31.9162 10.1044C31.4091 9.59731 30.7979 9.20622 30.125 8.95817C29.201 8.63788 28.2278 8.48274 27.25 8.49984H14.75C13.7672 8.50944 12.7939 8.69283 11.875 9.0415C11.2123 9.27829 10.6077 9.65341 10.1012 10.1419C9.59473 10.6304 9.19803 11.2212 8.93749 11.8748C8.63494 12.8027 8.48713 13.774 8.49999 14.7498V27.2498C8.52065 28.2315 8.70368 29.203 9.04166 30.1248C9.28971 30.7978 9.68079 31.4089 10.1879 31.9161C10.6951 32.4232 11.3062 32.8143 11.9792 33.0623C12.868 33.3892 13.8034 33.5721 14.75 33.604H27.25C28.2328 33.5944 29.2061 33.411 30.125 33.0623C30.7979 32.8143 31.4091 32.4232 31.9162 31.9161C32.4234 31.4089 32.8144 30.7978 33.0625 30.1248C33.4112 29.2059 33.5946 28.2326 33.6042 27.2498V14.7498C33.6048 13.7661 33.421 12.7909 33.0625 11.8748V11.8957ZM21 28.9582C19.9559 28.9582 18.922 28.7522 17.9576 28.352C16.9932 27.9518 16.1173 27.3652 15.38 26.626C14.6426 25.8867 14.0584 25.0092 13.6607 24.0438C13.263 23.0784 13.0597 22.044 13.0625 20.9998C13.0625 19.4249 13.5298 17.8855 14.4052 16.5763C15.2806 15.2671 16.5247 14.2471 17.9801 13.6453C19.4355 13.0436 21.0368 12.8872 22.5811 13.196C24.1254 13.5047 25.5434 14.2648 26.6556 15.3799C27.7677 16.4949 28.5241 17.9149 28.8288 19.4601C29.1335 21.0052 28.9729 22.606 28.3674 24.0598C27.7618 25.5137 26.7385 26.7551 25.4271 27.6271C24.1156 28.4991 22.5749 28.9623 21 28.9582ZM29.3333 14.604C28.8728 14.5553 28.4466 14.3378 28.1368 13.9935C27.8271 13.6493 27.6557 13.2025 27.6557 12.7394C27.6557 12.2763 27.8271 11.8296 28.1368 11.4853C28.4466 11.141 28.8728 10.9236 29.3333 10.8748C29.7939 10.9236 30.2201 11.141 30.5298 11.4853C30.8396 11.8296 31.011 12.2763 31.011 12.7394C31.011 13.2025 30.8396 13.6493 30.5298 13.9935C30.2201 14.3378 29.7939 14.5553 29.3333 14.604Z" fill="black"/>
</svg>
