<svg width="68" height="84" viewBox="0 0 68 84" fill="none" xmlns="http://www.w3.org/2000/svg">
<path d="M34.0003 42.0002C36.292 42.0002 38.2545 41.1835 39.8878 39.5502C41.5184 37.9196 42.3337 35.9585 42.3337 33.6668C42.3337 31.3752 41.5184 29.4127 39.8878 27.7793C38.2545 26.1488 36.292 25.3335 34.0003 25.3335C31.7087 25.3335 29.7475 26.1488 28.117 27.7793C26.4837 29.4127 25.667 31.3752 25.667 33.6668C25.667 35.9585 26.4837 37.9196 28.117 39.5502C29.7475 41.1835 31.7087 42.0002 34.0003 42.0002ZM34.0003 83.6668C22.8198 74.1529 14.4698 65.3154 8.95033 57.1543C3.4281 48.996 0.666992 41.4446 0.666992 34.5002C0.666992 24.0835 4.01838 15.7849 10.7212 9.60433C17.4212 3.42377 25.1809 0.333496 34.0003 0.333496C42.8198 0.333496 50.5795 3.42377 57.2795 9.60433C63.9823 15.7849 67.3337 24.0835 67.3337 34.5002C67.3337 41.4446 64.5739 48.996 59.0545 57.1543C53.5323 65.3154 45.1809 74.1529 34.0003 83.6668Z" fill="#F7922F"/>
</svg>
