<svg width="50" height="50" viewBox="0 0 50 50" fill="none" xmlns="http://www.w3.org/2000/svg">
<path d="M25 18.75C28.4375 18.75 31.25 21.5625 31.25 25C31.25 28.4375 28.4375 31.25 25 31.25C21.5625 31.25 18.75 28.4375 18.75 25C18.75 21.5625 21.5625 18.75 25 18.75ZM25 14.5833C19.25 14.5833 14.5834 19.25 14.5834 25C14.5834 30.75 19.25 35.4167 25 35.4167C30.75 35.4167 35.4167 30.75 35.4167 25C35.4167 19.25 30.75 14.5833 25 14.5833ZM4.16671 27.0833H8.33337C9.47921 27.0833 10.4167 26.1458 10.4167 25C10.4167 23.8542 9.47921 22.9167 8.33337 22.9167H4.16671C3.02087 22.9167 2.08337 23.8542 2.08337 25C2.08337 26.1458 3.02087 27.0833 4.16671 27.0833ZM41.6667 27.0833H45.8334C46.9792 27.0833 47.9167 26.1458 47.9167 25C47.9167 23.8542 46.9792 22.9167 45.8334 22.9167H41.6667C40.5209 22.9167 39.5834 23.8542 39.5834 25C39.5834 26.1458 40.5209 27.0833 41.6667 27.0833ZM22.9167 4.16666V8.33333C22.9167 9.47916 23.8542 10.4167 25 10.4167C26.1459 10.4167 27.0834 9.47916 27.0834 8.33333V4.16666C27.0834 3.02083 26.1459 2.08333 25 2.08333C23.8542 2.08333 22.9167 3.02083 22.9167 4.16666ZM22.9167 41.6667V45.8333C22.9167 46.9792 23.8542 47.9167 25 47.9167C26.1459 47.9167 27.0834 46.9792 27.0834 45.8333V41.6667C27.0834 40.5208 26.1459 39.5833 25 39.5833C23.8542 39.5833 22.9167 40.5208 22.9167 41.6667ZM12.4792 9.54166C12.2865 9.34853 12.0575 9.1953 11.8055 9.09076C11.5535 8.98622 11.2833 8.9324 11.0105 8.9324C10.7376 8.9324 10.4674 8.98622 10.2154 9.09076C9.96338 9.1953 9.73444 9.34853 9.54171 9.54166C9.34857 9.7344 9.19535 9.96333 9.09081 10.2154C8.98626 10.4674 8.93245 10.7376 8.93245 11.0104C8.93245 11.2833 8.98626 11.5534 9.09081 11.8055C9.19535 12.0575 9.34857 12.2864 9.54171 12.4792L11.75 14.6875C12.5625 15.5 13.8959 15.5 14.6875 14.6875C15.4792 13.875 15.5 12.5417 14.6875 11.75L12.4792 9.54166ZM38.25 35.3125C38.0573 35.1194 37.8284 34.9661 37.5763 34.8616C37.3243 34.757 37.0541 34.7032 36.7813 34.7032C36.5084 34.7032 36.2383 34.757 35.9862 34.8616C35.7342 34.9661 35.5053 35.1194 35.3125 35.3125C35.1194 35.5052 34.9662 35.7342 34.8616 35.9862C34.7571 36.2382 34.7033 36.5084 34.7033 36.7812C34.7033 37.0541 34.7571 37.3243 34.8616 37.5763C34.9662 37.8283 35.1194 38.0573 35.3125 38.25L37.5209 40.4583C38.3334 41.2708 39.6667 41.2708 40.4584 40.4583C40.6515 40.2656 40.8047 40.0367 40.9093 39.7846C41.0138 39.5326 41.0676 39.2624 41.0676 38.9896C41.0676 38.7167 41.0138 38.4466 40.9093 38.1945C40.8047 37.9425 40.6515 37.7136 40.4584 37.5208L38.25 35.3125ZM40.4584 12.4792C40.6515 12.2864 40.8047 12.0575 40.9093 11.8055C41.0138 11.5534 41.0676 11.2833 41.0676 11.0104C41.0676 10.7376 41.0138 10.4674 40.9093 10.2154C40.8047 9.96333 40.6515 9.7344 40.4584 9.54166C40.2656 9.34853 40.0367 9.1953 39.7847 9.09076C39.5326 8.98622 39.2625 8.9324 38.9896 8.9324C38.7168 8.9324 38.4466 8.98622 38.1946 9.09076C37.9425 9.1953 37.7136 9.34853 37.5209 9.54166L35.3125 11.75C34.5 12.5625 34.5 13.8958 35.3125 14.6875C36.125 15.4792 37.4584 15.5 38.25 14.6875L40.4584 12.4792ZM14.6875 38.25C14.8807 38.0573 15.0339 37.8283 15.1384 37.5763C15.243 37.3243 15.2968 37.0541 15.2968 36.7812C15.2968 36.5084 15.243 36.2382 15.1384 35.9862C15.0339 35.7342 14.8807 35.5052 14.6875 35.3125C14.4948 35.1194 14.2659 34.9661 14.0138 34.8616C13.7618 34.757 13.4916 34.7032 13.2188 34.7032C12.9459 34.7032 12.6758 34.757 12.4237 34.8616C12.1717 34.9661 11.9428 35.1194 11.75 35.3125L9.54171 37.5208C8.72921 38.3333 8.72921 39.6667 9.54171 40.4583C10.3542 41.25 11.6875 41.2708 12.4792 40.4583L14.6875 38.25Z" fill="black"/>
</svg>
