<svg width="24" height="24" viewBox="0 0 24 24" fill="none" xmlns="http://www.w3.org/2000/svg">
<path d="M6 21C5.45 21 4.97933 20.8043 4.588 20.413C4.196 20.021 4 19.55 4 19V10C4 9.68333 4.071 9.38333 4.213 9.1C4.35433 8.81667 4.55 8.58333 4.8 8.4L10.8 3.9C11.15 3.63333 11.55 3.5 12 3.5C12.45 3.5 12.85 3.63333 13.2 3.9L19.2 8.4C19.45 8.58333 19.646 8.81667 19.788 9.1C19.9293 9.38333 20 9.68333 20 10V19C20 19.55 19.8043 20.021 19.413 20.413C19.021 20.8043 18.55 21 18 21H6ZM10 14V17.5C10 17.6333 10.05 17.75 10.15 17.85C10.25 17.95 10.3667 18 10.5 18C10.6333 18 10.75 17.95 10.85 17.85C10.95 17.75 11 17.6333 11 17.5V14C11.4167 14 11.7707 13.854 12.062 13.562C12.354 13.2707 12.5 12.9167 12.5 12.5V10C12.5 9.86667 12.45 9.75 12.35 9.65C12.25 9.55 12.1333 9.5 12 9.5C11.8667 9.5 11.75 9.55 11.65 9.65C11.55 9.75 11.5 9.86667 11.5 10V12.5H11V10C11 9.86667 10.95 9.75 10.85 9.65C10.75 9.55 10.6333 9.5 10.5 9.5C10.3667 9.5 10.25 9.55 10.15 9.65C10.05 9.75 10 9.86667 10 10V12.5H9.5V10C9.5 9.86667 9.45 9.75 9.35 9.65C9.25 9.55 9.13333 9.5 9 9.5C8.86667 9.5 8.75 9.55 8.65 9.65C8.55 9.75 8.5 9.86667 8.5 10V12.5C8.5 12.9167 8.646 13.2707 8.938 13.562C9.22933 13.854 9.58333 14 10 14ZM14.5 18C14.6333 18 14.75 17.95 14.85 17.85C14.95 17.75 15 17.6333 15 17.5V10.1C15 9.96667 14.95 9.85 14.85 9.75C14.75 9.65 14.6333 9.6 14.5 9.6C14.0333 9.6 13.6667 9.79167 13.4 10.175C13.1333 10.5583 13 11 13 11.5V14C13 14.1333 13.05 14.25 13.15 14.35C13.25 14.45 13.3667 14.5 13.5 14.5H14V17.5C14 17.6333 14.05 17.75 14.15 17.85C14.25 17.95 14.3667 18 14.5 18Z" fill="black"/>
</svg>
