<svg width="24" height="24" viewBox="0 0 24 24" fill="none" xmlns="http://www.w3.org/2000/svg">
<path d="M12 0.640137L8.23 3.00014H5V5.00014L2.97 6.29014C2.39 6.64014 2 7.27014 2 8.00014V18.0001C2 18.5306 2.21071 19.0393 2.58579 19.4144C2.96086 19.7894 3.46957 20.0001 4 20.0001H20C21.11 20.0001 22 19.1101 22 18.0001V8.00014C22 7.27014 21.61 6.64014 21.03 6.29014L19 5.00014V3.00014H15.77M7 5.00014H17V9.88014L12 13.0001L7 9.88014M8 6.00014V7.50014H16V6.00014M5 7.38014V8.63014L4 8.00014M19 7.38014L20 8.00014L19 8.63014M8 8.50014V10.0001H16V8.50014H8Z" fill="black"/>
</svg>
