<svg width="95" height="95" viewBox="0 0 95 95" fill="none" xmlns="http://www.w3.org/2000/svg">
<circle cx="47.5" cy="47.5" r="47.5" fill="#F7922F" fill-opacity="0.2"/>
<path d="M43.4637 38.4709C43.4323 43.5746 40.1479 48.2023 35.2995 49.8361C29.4866 51.7946 22.8392 48.8632 20.4363 43.164C18.2488 37.9771 20.0343 31.8437 24.5977 28.6527C29.4256 25.2768 36.0969 25.9834 40.1981 30.2465C42.3152 32.4477 43.4383 35.4351 43.4637 38.4708C43.4772 40.0782 45.971 40.0799 45.9573 38.4708C45.9005 31.6197 41.0021 25.566 34.236 24.259C28.4511 23.1411 22.5756 25.7137 19.3328 30.5892C17.7933 32.9048 17.0172 35.7014 17.0003 38.4708C16.9782 42.0274 18.3557 45.4448 20.6774 48.11C24.9592 53.0263 32.2402 54.2291 38.008 51.3943C42.8683 49.0057 45.9243 43.8392 45.9582 38.4708C45.9675 36.8626 43.4739 36.8635 43.4637 38.4708V38.4709Z" fill="#F7922F"/>
<path d="M76.3978 54.1486V60.8088C76.3978 61.6087 76.419 62.4119 76.3919 63.2108C76.3486 64.5078 74.4749 64.2151 73.5384 64.2151C73.954 64.6307 74.3696 65.0464 74.7853 65.462C74.6809 62.5484 72.3832 60.2608 69.4609 60.2021C66.5397 60.1436 64.2384 62.6365 64.1366 65.462C64.5522 65.0464 64.9678 64.6307 65.3834 64.2151H61.2712C61.6868 64.6307 62.1024 65.0464 62.5181 65.462V47.7225V43.5925C62.1024 44.0081 61.6868 44.4237 61.2712 44.8393H70.0672C70.4769 44.8393 70.8883 44.8283 71.2971 44.8529C72.3634 44.9174 73.2947 45.7766 73.6458 46.7614C74.0792 47.9752 74.5237 49.1856 74.9622 50.3977C75.455 51.7582 75.9478 53.1187 76.4398 54.4793C76.6713 55.118 77.2795 55.5413 77.9734 55.3504C78.5891 55.1808 79.076 54.4564 78.8445 53.8168C77.9165 51.2552 76.9894 48.6936 76.0616 46.1319C75.2312 43.8376 73.2802 42.3454 70.8078 42.3454H66.408H61.2704C60.591 42.3454 60.0236 42.9129 60.0236 43.5923V61.3318V65.4618C60.0236 66.1412 60.591 66.7087 61.2704 66.7087H65.3827C66.0808 66.7087 66.605 66.1412 66.6296 65.4618C66.6847 63.9206 67.918 62.7271 69.46 62.6959C71.0021 62.6653 72.2371 63.9665 72.2905 65.4618C72.3151 66.1412 72.8393 66.7087 73.5374 66.7087H75.1905C76.4908 66.7087 77.5622 66.059 78.3085 65.0258C79.0346 64.0199 78.8904 62.6694 78.8904 61.4973V54.1483C78.8912 52.5409 76.3976 52.5409 76.3976 54.1483L76.3978 54.1486Z" fill="#F7922F"/>
<path d="M60.0274 38.4578V55.362V65.4626L61.2743 64.2157H43.5287H40.3734C40.789 64.6313 41.2046 65.0469 41.6203 65.4626C41.5159 62.549 39.2182 60.2614 36.2959 60.2027C33.3747 60.1442 31.0734 62.638 30.9716 65.4626C31.3872 65.0469 31.8028 64.6313 32.2185 64.2157C30.8952 64.2157 29.5661 64.2547 28.2437 64.2098C27.0222 64.1682 27.2394 62.5557 27.2394 61.6507V51.4111V50.5154C26.6143 50.8742 25.9883 51.233 25.3631 51.5918C30.5127 53.8955 36.3636 53.1356 40.7388 49.5943C44.8391 46.2752 46.5999 40.8347 45.689 35.7106C45.2886 36.2365 44.8874 36.7632 44.4862 37.2891H52.7333H57.6792C58.6937 37.2883 59.9829 37.1491 60.0269 38.4579C60.0812 40.0619 62.5749 40.067 62.5206 38.4579C62.4646 36.787 61.429 35.4223 59.8309 34.925C59.3618 34.7791 58.8605 34.7944 58.3745 34.7944H54.1148H44.6656H44.4866C43.6189 34.7944 43.1447 35.5858 43.2838 36.3729C44.0464 40.6615 42.3814 44.9407 39.0945 47.7314C35.7195 50.5958 30.6896 51.2583 26.6216 49.4381C25.7861 49.0648 24.7454 49.4923 24.7454 50.5144V59.1493V62.9289C24.7454 64.0019 25.144 65.002 25.9312 65.7407C26.7616 66.5194 27.8082 66.7077 28.8982 66.7077H32.2172C32.9153 66.7077 33.4395 66.1402 33.4641 65.4608C33.5201 63.9196 34.7525 62.7261 36.2946 62.6948C37.8366 62.6634 39.0716 63.9655 39.125 65.4608C39.1496 66.1402 39.6738 66.7077 40.3719 66.7077H58.1175H61.2728C61.9522 66.7077 62.5196 66.1402 62.5196 65.4608V48.5567V38.456C62.5205 36.8495 60.0268 36.8495 60.0268 38.4577L60.0274 38.4578Z" fill="#F7922F"/>
<path d="M72.2938 65.5269C72.2624 67.0969 71.0325 68.3269 69.4625 68.3582C67.8924 68.3896 66.6617 67.0502 66.632 65.5269C66.6006 63.9568 67.9357 62.7268 69.4625 62.6955C71.0232 62.665 72.2836 64.0043 72.2938 65.5269C72.3048 67.1342 74.7994 67.1351 74.7875 65.5269C74.7662 62.587 72.3735 60.2603 69.4625 60.2019C66.5438 60.1433 64.1679 62.6753 64.1381 65.5269C64.1067 68.4659 66.5912 70.7952 69.4625 70.8519C72.4015 70.9095 74.7308 68.3784 74.7875 65.5269C74.8197 63.9187 72.3259 63.9212 72.2938 65.5269Z" fill="#F7922F"/>
<path d="M39.1273 65.5269C39.096 67.0969 37.8661 68.3269 36.296 68.3582C34.726 68.3895 33.4953 67.0502 33.4647 65.5269C33.4333 63.9568 34.7684 62.7268 36.296 62.6955C37.8584 62.665 39.1121 64.0043 39.1273 65.5269C39.1426 67.1342 41.6364 67.1359 41.621 65.5269C41.5922 62.587 39.2129 60.2603 36.296 60.2019C33.3807 60.1433 30.9964 62.6745 30.971 65.5269C30.9447 68.4659 33.4206 70.7952 36.296 70.8519C39.2351 70.9095 41.5643 68.3784 41.621 65.5269C41.6524 63.9187 39.1586 63.9212 39.1273 65.5269Z" fill="#F7922F"/>
<path d="M72.7519 52.9H65.6539C66.0696 53.3157 66.4852 53.7313 66.9008 54.1469V47.82C66.4852 48.2356 66.0696 48.6512 65.6539 49.0669H68.3997H69.5329C69.6449 49.0669 69.1207 48.9456 69.672 49.0906C69.5872 49.0686 69.5143 48.8964 69.6576 49.1296C69.605 49.044 69.7094 49.3095 69.7238 49.351C70.332 51.0602 70.941 52.7684 71.5491 54.4776C71.7773 55.1171 72.3914 55.5387 73.0827 55.3487C73.7019 55.1782 74.182 54.4555 73.9538 53.8151C73.3346 52.0746 72.7146 50.3349 72.0954 48.5943C71.7561 47.6401 71.2217 46.9182 70.1928 46.6477C69.7263 46.5247 69.1877 46.5722 68.7093 46.5722H65.6533C64.9738 46.5722 64.4064 47.1396 64.4064 47.8191V54.146C64.4064 54.8254 64.9738 55.3928 65.6533 55.3928H72.7512C74.3603 55.3937 74.3603 52.9 72.7521 52.9L72.7519 52.9Z" fill="#F7922F"/>
<path d="M54.9657 46.5746H48.5617C46.9535 46.5746 46.9535 49.0683 48.5617 49.0683H54.9657C56.5739 49.0683 56.5739 46.5746 54.9657 46.5746Z" fill="#F7922F"/>
<path d="M54.9658 52.9H37.5366H36.4789C34.8707 52.9 34.8707 55.3937 36.4789 55.3937H53.908H54.9658C56.574 55.3937 56.574 52.9 54.9658 52.9Z" fill="#F7922F"/>
<path d="M26.3224 35.0769L34.8716 43.626C36.0099 44.7643 37.7732 43.0009 36.635 41.8626C33.785 39.0126 30.9359 36.1635 28.0859 33.3135C26.9476 32.176 25.1842 33.9394 26.3224 35.0769Z" fill="#F7922F"/>
<path d="M28.0857 43.6258C30.9357 40.7758 33.7848 37.9267 36.6348 35.0767C37.7731 33.9384 36.0097 32.175 34.8713 33.3133L26.3222 41.8624C25.1839 43.0007 26.9473 44.7641 28.0857 43.6258V43.6258Z" fill="#F7922F"/>
</svg>
