<svg width="40" height="40" viewBox="0 0 40 40" fill="none" xmlns="http://www.w3.org/2000/svg">
<path d="M31.0129 23.1122C30.6041 23.1124 30.1993 23.032 29.8216 22.8757C29.4438 22.7193 29.1006 22.4901 28.8114 22.2012C28.5222 21.9122 28.2928 21.5691 28.1363 21.1914C27.9797 20.8138 27.8991 20.409 27.8989 20.0002C27.8988 19.5914 27.9792 19.1866 28.1355 18.8089C28.2918 18.4311 28.521 18.0879 28.81 17.7987C29.099 17.5096 29.4421 17.2801 29.8197 17.1236C30.1973 16.967 30.6021 16.8864 31.0109 16.8862C31.8365 16.886 32.6285 17.2137 33.2124 17.7973C33.7964 18.3809 34.1247 19.1726 34.1249 19.9982C34.1252 20.8238 33.7975 21.6158 33.2139 22.1997C32.6302 22.7837 31.8385 23.112 31.0129 23.1122Z" fill="black"/>
<path d="M20.329 23.1122C22.0478 23.1122 23.441 21.7189 23.441 20.0002C23.441 18.2815 22.0478 16.8882 20.329 16.8882C18.6103 16.8882 17.217 18.2815 17.217 20.0002C17.217 21.7189 18.6103 23.1122 20.329 23.1122Z" fill="black"/>
<path d="M9.64301 23.1122C11.3617 23.1122 12.755 21.7189 12.755 20.0002C12.755 18.2815 11.3617 16.8882 9.64301 16.8882C7.9243 16.8882 6.53101 18.2815 6.53101 20.0002C6.53101 21.7189 7.9243 23.1122 9.64301 23.1122Z" fill="black"/>
</svg>
