<svg width="40" height="41" viewBox="0 0 40 41" fill="none" xmlns="http://www.w3.org/2000/svg">
<path d="M25.8333 23.6554H24.5167L24.05 23.2054C25.7398 21.2454 26.6685 18.7432 26.6667 16.1554C26.6667 14.0127 26.0313 11.9182 24.8409 10.1367C23.6505 8.35515 21.9586 6.96661 19.9791 6.14666C17.9995 5.32672 15.8213 5.11218 13.7199 5.53019C11.6184 5.94819 9.68808 6.97997 8.17301 8.49504C6.65795 10.0101 5.62617 11.9404 5.20816 14.0419C4.79016 16.1433 5.00469 18.3216 5.82464 20.3011C6.64459 22.2806 8.03313 23.9726 9.81466 25.1629C11.5962 26.3533 13.6907 26.9887 15.8333 26.9887C18.5167 26.9887 20.9833 26.0054 22.8833 24.372L23.3333 24.8387V26.1554L31.6667 34.472L34.15 31.9887L25.8333 23.6554ZM15.8333 23.6554C11.6833 23.6554 8.33334 20.3054 8.33334 16.1554C8.33334 12.0054 11.6833 8.65536 15.8333 8.65536C19.9833 8.65536 23.3333 12.0054 23.3333 16.1554C23.3333 20.3054 19.9833 23.6554 15.8333 23.6554Z" fill="black"/>
</svg>
