<svg width="95" height="95" viewBox="0 0 95 95" fill="none" xmlns="http://www.w3.org/2000/svg">
<circle cx="47.5" cy="47.5" r="47.5" fill="#F7922F" fill-opacity="0.2"/>
<g clip-path="url(#clip0_200_3)">
<path d="M68.0695 37.5139H65.6478L65.9429 34.5589C66.0152 33.8349 65.9349 33.1038 65.7074 32.4127C65.4797 31.7217 65.11 31.0859 64.6217 30.5465C64.1335 30.0071 63.5377 29.5759 62.8725 29.2809C62.2075 28.9858 61.4881 28.8334 60.7604 28.8333H33.7118C32.9841 28.8334 32.2645 28.9859 31.5993 29.2811C30.9341 29.5763 30.3382 30.0075 29.8499 30.5471C29.3616 31.0867 28.9917 31.7226 28.7642 32.4138C28.5367 33.1051 28.4565 33.8363 28.5288 34.5604L31.3077 62.3367C31.3543 62.7531 31.451 63.1622 31.5955 63.5556H26.4028C25.9424 63.5556 25.5008 63.7385 25.1752 64.064C24.8496 64.3896 24.6667 64.8313 24.6667 65.2917C24.6667 65.7521 24.8496 66.1938 25.1752 66.5193C25.5008 66.8449 25.9424 67.0278 26.4028 67.0278H68.0695C68.5299 67.0278 68.9715 66.8449 69.2971 66.5193C69.6227 66.1938 69.8056 65.7521 69.8056 65.2917C69.8056 64.8313 69.6227 64.3896 69.2971 64.064C68.9715 63.7385 68.5299 63.5556 68.0695 63.5556H62.8771C63.0214 63.1628 63.1179 62.754 63.1646 62.3382L64.0847 53.1389H68.0695C69.4503 53.1374 70.7742 52.5882 71.7506 51.6117C72.7271 50.6353 73.2763 49.3114 73.2778 47.9306V42.7222C73.2763 41.3413 72.7271 40.0175 71.7506 39.0411C70.7742 38.0646 69.4503 37.5154 68.0695 37.5139ZM36.4896 63.5556C36.059 63.5569 35.6433 63.3975 35.324 63.1086C35.0047 62.8196 34.8049 62.4217 34.7636 61.9931L31.984 34.2163C31.9599 33.9748 31.9865 33.731 32.0624 33.5004C32.1382 33.2699 32.2614 33.0578 32.4242 32.8778C32.587 32.6978 32.7856 32.5538 33.0074 32.4553C33.2292 32.3567 33.4691 32.3057 33.7118 32.3056H60.7604C61.0031 32.3057 61.2429 32.3567 61.4646 32.4552C61.6863 32.5537 61.885 32.6975 62.0477 32.8774C62.2104 33.0573 62.3338 33.2693 62.4096 33.4997C62.4854 33.7301 62.5122 33.9739 62.4882 34.2153L59.7095 61.9947C59.6677 62.4233 59.4675 62.8208 59.1482 63.1094C58.8288 63.3982 58.4132 63.5572 57.9827 63.5556H36.4896ZM69.8056 47.9306C69.8053 48.391 69.6222 48.8324 69.2968 49.1579C68.9713 49.4833 68.5299 49.6664 68.0695 49.6667H64.4321L65.3002 40.9861H68.0695C68.5299 40.9864 68.9713 41.1694 69.2968 41.4949C69.6222 41.8204 69.8053 42.2618 69.8056 42.7222V47.9306Z" fill="#F7922F"/>
</g>
<defs>
<clipPath id="clip0_200_3">
<rect width="50" height="50" fill="white" transform="translate(23 23)"/>
</clipPath>
</defs>
</svg>
