<svg width="95" height="95" viewBox="0 0 95 95" fill="none" xmlns="http://www.w3.org/2000/svg">
<circle cx="47.5" cy="47.5" r="47.5" fill="#F7922F" fill-opacity="0.2"/>
<path d="M26.087 70V30.31H34.074C36.72 30.31 38.9087 30.6693 40.64 31.388C42.3713 32.074 43.6453 33.201 44.462 34.769C45.3113 36.3043 45.736 38.3297 45.736 40.845C45.736 42.3803 45.5727 43.785 45.246 45.059C44.9193 46.3003 44.3967 47.362 43.678 48.244C42.9593 49.0933 42.012 49.714 40.836 50.106L46.471 70H41.13L35.936 51.38H31.624V70H26.087ZM31.624 47.411H33.731C35.299 47.411 36.573 47.215 37.553 46.823C38.533 46.431 39.2517 45.7613 39.709 44.814C40.1663 43.8667 40.395 42.5437 40.395 40.845C40.395 38.5257 39.9703 36.8597 39.121 35.847C38.2717 34.8017 36.5893 34.279 34.074 34.279H31.624V47.411ZM60.8552 70.441C58.5685 70.441 56.6575 69.951 55.1222 68.971C53.6195 67.991 52.4762 66.6353 51.6922 64.904C50.9082 63.1727 50.4508 61.1637 50.3202 58.877L55.2202 57.554C55.3182 58.9587 55.5305 60.3143 55.8572 61.621C56.2165 62.9277 56.7882 64.0057 57.5722 64.855C58.3562 65.6717 59.4505 66.08 60.8552 66.08C62.2925 66.08 63.3705 65.688 64.0892 64.904C64.8405 64.0873 65.2162 62.9277 65.2162 61.425C65.2162 59.6283 64.8078 58.191 63.9912 57.113C63.1745 56.0023 62.1455 54.8917 60.9042 53.781L54.2402 47.901C52.9335 46.7577 51.9698 45.5163 51.3492 44.177C50.7285 42.805 50.4182 41.1227 50.4182 39.13C50.4182 36.2227 51.2512 33.9687 52.9172 32.368C54.5832 30.7673 56.8535 29.967 59.7282 29.967C61.2962 29.967 62.6682 30.1793 63.8442 30.604C65.0528 30.996 66.0492 31.6167 66.8332 32.466C67.6498 33.3153 68.2868 34.3933 68.7442 35.7C69.2342 36.974 69.5608 38.4767 69.7242 40.208L65.0202 41.482C64.9222 40.1753 64.7262 38.983 64.4322 37.905C64.1382 36.7943 63.6155 35.9123 62.8642 35.259C62.1455 34.573 61.1002 34.23 59.7282 34.23C58.3562 34.23 57.2782 34.6057 56.4942 35.357C55.7428 36.0757 55.3672 37.1537 55.3672 38.591C55.3672 39.7997 55.5632 40.796 55.9552 41.58C56.3798 42.364 57.0495 43.1643 57.9642 43.981L64.6772 49.861C66.1798 51.1677 67.5028 52.7357 68.6462 54.565C69.7895 56.3617 70.3612 58.5013 70.3612 60.984C70.3612 62.944 69.9528 64.6427 69.1362 66.08C68.3195 67.4847 67.1925 68.5627 65.7552 69.314C64.3505 70.0653 62.7172 70.441 60.8552 70.441Z" fill="#F7922F"/>
</svg>
