<svg width="95" height="95" viewBox="0 0 95 95" fill="none" xmlns="http://www.w3.org/2000/svg">
<circle cx="47.5" cy="47.5" r="47.5" fill="#F7922F" fill-opacity="0.2"/>
<g clip-path="url(#clip0_200_5)">
<path d="M40.7418 49.0381C41.9454 49.0381 43.122 48.6812 44.1228 48.0125C45.1236 47.3437 45.9036 46.3934 46.3642 45.2813C46.8247 44.1693 46.9454 42.9457 46.7105 41.7652C46.4757 40.5846 45.8961 39.5003 45.0449 38.6492C44.1939 37.7981 43.1096 37.2185 41.9291 36.9837C40.7485 36.7489 39.5249 36.8694 38.4129 37.33C37.3009 37.7906 36.3504 38.5706 35.6817 39.5715C35.0131 40.5722 34.6561 41.7488 34.6561 42.9524C34.6577 44.566 35.2994 46.1129 36.4403 47.2539C37.5812 48.3948 39.1282 49.0365 40.7418 49.0381ZM40.7418 39.9096C41.3436 39.9096 41.9319 40.088 42.4322 40.4224C42.9326 40.7567 43.3227 41.232 43.553 41.788C43.7833 42.344 43.8435 42.9558 43.7262 43.546C43.6087 44.1363 43.3189 44.6784 42.8934 45.104C42.4678 45.5296 41.9257 45.8194 41.3354 45.9368C40.7452 46.0541 40.1333 45.9939 39.5773 45.7636C39.0213 45.5333 38.5461 45.1434 38.2118 44.6429C37.8774 44.1425 37.699 43.5543 37.699 42.9524C37.7 42.1457 38.021 41.3725 38.5914 40.802C39.1618 40.2316 39.9351 39.9107 40.7418 39.9096Z" fill="#F7922F"/>
<path d="M64.5002 52.9603C65.0025 52.2876 65.338 51.5054 65.4792 50.6779C65.6205 49.8504 65.5636 49.0011 65.313 48.2L64.3472 45.0576C63.8937 43.5672 62.9719 42.2627 61.7185 41.3375C60.4651 40.4124 58.9469 39.9159 57.3891 39.9218H50.5625C50.1589 39.9218 49.7719 40.0821 49.4866 40.3674C49.2012 40.6527 49.041 41.0397 49.041 41.4432C49.041 41.8467 49.2012 42.2337 49.4866 42.519C49.7719 42.8043 50.1589 42.9646 50.5625 42.9646H57.3891C58.2956 42.9614 59.179 43.2506 59.9083 43.7891C60.6375 44.3275 61.1739 45.0867 61.4378 45.9539L62.4035 49.0948C62.5102 49.4413 62.5339 49.8079 62.473 50.1653C62.4122 50.5226 62.2683 50.8606 62.053 51.1522C61.8377 51.4439 61.557 51.681 61.2335 51.8443C60.9099 52.0077 60.5525 52.0929 60.1901 52.0931H46.2404C46.1973 52.0931 46.1613 52.1139 46.1187 52.1175C46.0165 52.1136 45.9176 52.0931 45.8139 52.0931H36.2747C34.584 52.0869 32.9364 52.6261 31.5765 53.6305C30.2165 54.635 29.2168 56.0513 28.7256 57.669L27.5897 61.3585C27.3244 62.2219 27.2653 63.1355 27.4172 64.0258C27.5692 64.9163 27.9279 65.7585 28.4646 66.485C29.0012 67.2116 29.7008 67.8021 30.5072 68.2092C31.3135 68.6162 32.2041 68.8284 33.1074 68.8286H48.9802C49.8834 68.8284 50.7741 68.6163 51.5806 68.2093C52.3869 67.8023 53.0867 67.2119 53.6234 66.4853C54.16 65.7588 54.5189 64.9164 54.6709 64.0259C54.8228 63.1356 54.7637 62.2219 54.4984 61.3585L53.3633 57.6693C53.0757 56.7507 52.6231 55.8921 52.0274 55.1359H60.1901C61.0293 55.1398 61.8575 54.9446 62.6068 54.5664C63.3559 54.1882 64.0049 53.6377 64.5002 52.9603ZM51.176 64.677C50.9237 65.0222 50.5931 65.3027 50.2114 65.4954C49.8297 65.6882 49.4078 65.7876 48.9802 65.7858H33.1074C32.6802 65.7857 32.2589 65.6854 31.8775 65.4929C31.4962 65.3004 31.1653 65.0211 30.9115 64.6775C30.6577 64.3337 30.4882 63.9353 30.4164 63.5141C30.3447 63.093 30.3728 62.6609 30.4985 62.2526L31.6336 58.5635C31.9352 57.5688 32.5496 56.6981 33.3856 56.0805C34.2216 55.4631 35.2346 55.1318 36.2739 55.1359H45.8132C46.8525 55.1318 47.8654 55.4631 48.7015 56.0805C49.5374 56.6981 50.1519 57.5688 50.4535 58.5635L51.5886 62.2526C51.7165 62.6606 51.7459 63.0931 51.6742 63.5146C51.6025 63.9362 51.4317 64.3347 51.176 64.6775V64.677Z" fill="#F7922F"/>
<path d="M53.6738 36.8668C54.727 36.8668 55.7564 36.5545 56.6322 35.9693C57.5079 35.3842 58.1903 34.5526 58.5935 33.5796C58.9964 32.6066 59.1019 31.5359 58.8964 30.503C58.6909 29.47 58.1838 28.5212 57.4391 27.7765C56.6944 27.0318 55.7456 26.5247 54.7126 26.3192C53.6797 26.1137 52.6091 26.2192 51.6361 26.6222C50.663 27.0253 49.8315 27.7078 49.2463 28.5835C48.6612 29.4591 48.3489 30.4886 48.3489 31.5418C48.3506 32.9536 48.9122 34.307 49.9103 35.3053C50.9086 36.3035 52.2621 36.8651 53.6738 36.8668ZM53.6738 29.2597C54.1251 29.2597 54.5663 29.3936 54.9417 29.6443C55.3169 29.8951 55.6095 30.2515 55.7823 30.6685C55.955 31.0855 56.0001 31.5444 55.9121 31.987C55.824 32.4297 55.6066 32.8364 55.2875 33.1555C54.9684 33.4747 54.5617 33.692 54.119 33.7801C53.6764 33.8681 53.2175 33.8229 52.8005 33.6502C52.3835 33.4775 52.027 33.185 51.7763 32.8097C51.5256 32.4344 51.3917 31.9932 51.3917 31.5418C51.3924 30.9368 51.6331 30.3567 52.0609 29.9289C52.4887 29.5011 53.0688 29.2604 53.6738 29.2597Z" fill="#F7922F"/>
</g>
<defs>
<clipPath id="clip0_200_5">
<rect width="50" height="50" fill="white" transform="translate(23 23)"/>
</clipPath>
</defs>
</svg>
