<svg width="95" height="95" viewBox="0 0 95 95" fill="none" xmlns="http://www.w3.org/2000/svg">
<circle cx="47.5" cy="47.5" r="47.5" fill="#F7922F" fill-opacity="0.2"/>
<path d="M62.5108 49.6481C65.9908 49.6589 68.8122 52.5303 68.8334 56.0827V62.379C68.8122 65.9347 65.9939 68.8118 62.5108 68.8333H56.343C52.8632 68.8117 50.0504 65.9315 50.0399 62.379V56.0827C50.0399 52.5289 52.8619 49.6481 56.343 49.6481H62.5108ZM36.0221 49.6481C36.6697 49.5774 37.3 49.8902 37.6455 50.4538C37.991 51.0174 37.991 51.733 37.6455 52.2966C37.3 52.8602 36.6697 53.173 36.0221 53.1023H33.4892C31.8736 53.1022 30.5609 54.4335 30.5503 56.0827V62.3001C30.5914 63.9361 31.8864 65.2494 33.4892 65.2805H39.6957C40.4734 65.2858 41.2209 64.9741 41.7726 64.4146C42.3244 63.8551 42.6346 63.094 42.6346 62.3001V52.9641L42.6082 52.7319C42.579 52.1142 42.8753 51.5193 43.3967 51.1818C43.9832 50.8022 44.7369 50.8245 45.3008 51.2383C45.8648 51.6521 46.1258 52.3743 45.9602 53.0628V62.3593C45.9602 65.9239 43.1295 68.8136 39.6377 68.8136H33.4892C30.0276 68.7403 27.2385 65.8931 27.1667 62.3593V56.0827C27.1667 54.3727 27.8334 52.7331 29.0197 51.5258C30.2059 50.3185 31.8141 49.6429 33.4892 49.6481H36.0221ZM62.5108 53.1022H56.343C54.7306 53.1022 53.4234 54.4366 53.4234 56.0827V62.379C53.4183 63.1711 53.7242 63.9323 54.2728 64.4924C54.8215 65.0524 55.5671 65.3648 56.343 65.3595H62.5108C63.2867 65.3648 64.0324 65.0524 64.581 64.4924C65.1297 63.9323 65.4356 63.1711 65.4305 62.379V56.0827C65.4305 55.2922 65.1228 54.5341 64.5753 53.9752C64.0278 53.4162 63.2852 53.1022 62.5108 53.1022ZM62.5108 27.1667C65.9649 27.2504 68.7426 30.0946 68.814 33.6209V39.8976C68.8347 41.6042 68.1903 43.2492 67.0227 44.4708C65.8551 45.6923 64.2599 46.3903 62.5882 46.4111H60.036C59.1713 46.3166 58.5156 45.5717 58.5156 44.684C58.5156 43.7963 59.1713 43.0515 60.036 42.957H62.5108C63.2937 42.9518 64.0421 42.628 64.5902 42.0573C65.1383 41.4867 65.4407 40.7164 65.4304 39.9173V33.6209C65.4096 31.9838 64.1146 30.6618 62.5108 30.6405H56.343C54.7306 30.6405 53.4235 31.9749 53.4235 33.6209V43.0359L53.4033 43.2524C53.2721 44.1021 52.547 44.7438 51.6833 44.7334C51.2337 44.7231 50.8068 44.5294 50.498 44.1957C50.1892 43.8619 50.0242 43.4158 50.0399 42.957V33.6209C50.0347 31.911 50.6965 30.2692 51.8792 29.0583C53.0618 27.8473 54.668 27.1667 56.343 27.1667H62.5108ZM39.657 27.1667C43.1444 27.1775 45.9689 30.0608 45.9795 33.6209V39.9173C45.9795 41.6273 45.3128 43.267 44.1265 44.4742C42.9403 45.6815 41.3321 46.3571 39.657 46.3519H33.4892C30.0093 46.3411 27.1879 43.4697 27.1667 39.9173V33.6209C27.1878 30.0653 30.0062 27.1882 33.4892 27.1667H39.657ZM39.657 30.6405H33.4892C32.7049 30.6246 31.9473 30.9316 31.3871 31.4923C30.827 32.0529 30.5115 32.8201 30.5116 33.6209V39.9173C30.4957 40.7284 30.8043 41.511 31.3662 42.0846C31.9281 42.6582 32.6947 42.9732 33.4892 42.957H39.657C40.4399 42.9518 41.1883 42.628 41.7364 42.0573C42.2845 41.4867 42.5869 40.7164 42.5766 39.9173V33.6209C42.566 31.9794 41.2651 30.6513 39.657 30.6405Z" fill="#F7922F"/>
</svg>
