<svg width="95" height="95" viewBox="0 0 95 95" fill="none" xmlns="http://www.w3.org/2000/svg">
<circle cx="47.5" cy="47.5" r="47.5" fill="#F7922F" fill-opacity="0.2"/>
<g clip-path="url(#clip0_200_4)">
<path d="M29.2344 71.4375H58.5312C60.0847 71.4358 61.5741 70.818 62.6725 69.7194C63.7711 68.6209 64.3889 67.1316 64.3906 65.5781V49.9531C64.3906 49.4352 64.1848 48.9383 63.8186 48.572C63.4523 48.2058 62.9555 48 62.4375 48C61.9195 48 61.4227 48.2058 61.0564 48.572C60.6902 48.9383 60.4844 49.4352 60.4844 49.9531V65.5781C60.4839 66.0959 60.278 66.5925 59.9119 66.9588C59.5456 67.3248 59.0491 67.5308 58.5312 67.5312H29.2344C28.7165 67.5308 28.22 67.3248 27.8538 66.9588C27.4876 66.5925 27.2817 66.0959 27.2812 65.5781V38.2344C27.2817 37.7165 27.4876 37.22 27.8538 36.8538C28.22 36.4876 28.7165 36.2817 29.2344 36.2812H46.8125C47.3305 36.2812 47.8273 36.0755 48.1936 35.7092C48.5598 35.3429 48.7656 34.8461 48.7656 34.3281C48.7656 33.8101 48.5598 33.3133 48.1936 32.9471C47.8273 32.5808 47.3305 32.375 46.8125 32.375H29.2344C27.6809 32.3767 26.1915 32.9946 25.0931 34.0931C23.9946 35.1915 23.3767 36.6809 23.375 38.2344V65.5781C23.3767 67.1316 23.9946 68.6209 25.0931 69.7194C26.1915 70.818 27.6809 71.4358 29.2344 71.4375Z" fill="#F7922F"/>
<path d="M62.4531 24.5625C60.5217 24.5625 58.6336 25.1352 57.0277 26.2083C55.4217 27.2814 54.17 28.8065 53.431 30.591C52.6917 32.3754 52.4983 34.339 52.8752 36.2333C53.2521 38.1277 54.1821 39.8677 55.5478 41.2334C56.9136 42.5992 58.6536 43.5294 60.548 43.9061C62.4424 44.283 64.4058 44.0895 66.1903 43.3503C67.9747 42.6113 69.4999 41.3595 70.573 39.7536C71.646 38.1477 72.2188 36.2596 72.2188 34.3281C72.2157 31.7391 71.1858 29.2569 69.3552 27.4262C67.5244 25.5954 65.0422 24.5656 62.4531 24.5625ZM62.4531 40.1875C61.2942 40.1875 60.1614 39.8439 59.1978 39.2C58.2342 38.5562 57.4833 37.6411 57.0399 36.5704C56.5963 35.4998 56.4803 34.3216 56.7064 33.185C56.9324 32.0484 57.4905 31.0044 58.3099 30.1849C59.1294 29.3655 60.1735 28.8074 61.31 28.5813C62.4466 28.3553 63.6247 28.4713 64.6955 28.9148C65.7661 29.3583 66.6811 30.1093 67.325 31.0728C67.9689 32.0364 68.3125 33.1693 68.3125 34.3281C68.3108 35.8816 67.693 37.371 66.5944 38.4694C65.496 39.568 64.0066 40.1858 62.4531 40.1875Z" fill="#F7922F"/>
<path d="M33.1406 44.0938H42.9062C43.4242 44.0938 43.9211 43.888 44.2873 43.5217C44.6536 43.1555 44.8594 42.6586 44.8594 42.1406C44.8594 41.6227 44.6536 41.1258 44.2873 40.7595C43.9211 40.3933 43.4242 40.1875 42.9062 40.1875H33.1406C32.6226 40.1875 32.1258 40.3933 31.7596 40.7595C31.3933 41.1258 31.1875 41.6227 31.1875 42.1406C31.1875 42.6586 31.3933 43.1555 31.7596 43.5217C32.1258 43.888 32.6226 44.0938 33.1406 44.0938Z" fill="#F7922F"/>
<path d="M31.1875 49.9531C31.1875 50.4711 31.3933 50.968 31.7596 51.3342C32.1258 51.7005 32.6226 51.9062 33.1406 51.9062H50.7188C51.2367 51.9062 51.7336 51.7005 52.0998 51.3342C52.4661 50.968 52.6719 50.4711 52.6719 49.9531C52.6719 49.4352 52.4661 48.9383 52.0998 48.572C51.7336 48.2058 51.2367 48 50.7188 48H33.1406C32.6226 48 32.1258 48.2058 31.7596 48.572C31.3933 48.9383 31.1875 49.4352 31.1875 49.9531Z" fill="#F7922F"/>
</g>
<defs>
<clipPath id="clip0_200_4">
<rect width="50" height="50" fill="white" transform="translate(23 23)"/>
</clipPath>
</defs>
</svg>
