<svg width="95" height="95" viewBox="0 0 95 95" fill="none" xmlns="http://www.w3.org/2000/svg">
<circle cx="47.5" cy="47.5" r="47.5" fill="#F7922F" fill-opacity="0.2"/>
<path d="M24.989 70V30.31H34.495C37.1737 30.31 39.4277 30.6367 41.257 31.29C43.119 31.9107 44.5237 32.9887 45.471 34.524C46.451 36.0593 46.941 38.15 46.941 40.796C46.941 42.3967 46.794 43.834 46.5 45.108C46.206 46.382 45.6997 47.4763 44.981 48.391C44.295 49.273 43.3313 49.959 42.09 50.449L47.627 70H40.375L35.573 51.821H32.241V70H24.989ZM32.241 47.264H34.495C35.8997 47.264 37.0103 47.068 37.827 46.676C38.6763 46.2513 39.2807 45.598 39.64 44.716C39.9993 43.8013 40.179 42.6417 40.179 41.237C40.179 39.2443 39.8033 37.758 39.052 36.778C38.3333 35.7653 36.945 35.259 34.887 35.259H32.241V47.264ZM62.3561 70.539C59.9714 70.539 57.9788 70.0817 56.3781 69.167C54.7774 68.2197 53.5688 66.8477 52.7521 65.051C51.9354 63.2543 51.4781 61.0493 51.3801 58.436L57.6031 57.211C57.6684 58.7463 57.8481 60.102 58.1421 61.278C58.4688 62.454 58.9424 63.3687 59.5631 64.022C60.2164 64.6427 61.0658 64.953 62.1111 64.953C63.2871 64.953 64.1201 64.61 64.6101 63.924C65.1001 63.2053 65.3451 62.307 65.3451 61.229C65.3451 59.4977 64.9531 58.0767 64.1691 56.966C63.3851 55.8553 62.3398 54.7447 61.0331 53.634L56.0351 49.224C54.6304 48.0153 53.5034 46.676 52.6541 45.206C51.8374 43.7033 51.4291 41.8577 51.4291 39.669C51.4291 36.533 52.3438 34.1157 54.1731 32.417C56.0024 30.7183 58.5014 29.869 61.6701 29.869C63.5321 29.869 65.0838 30.163 66.3251 30.751C67.5664 31.3063 68.5464 32.0903 69.2651 33.103C70.0164 34.1157 70.5718 35.2753 70.9311 36.582C71.2904 37.856 71.5191 39.2117 71.6171 40.649L65.4431 41.727C65.3778 40.4857 65.2308 39.375 65.0021 38.395C64.8061 37.415 64.4304 36.6473 63.8751 36.092C63.3524 35.5367 62.5684 35.259 61.5231 35.259C60.4451 35.259 59.6121 35.6183 59.0241 36.337C58.4688 37.023 58.1911 37.8887 58.1911 38.934C58.1911 40.2733 58.4688 41.384 59.0241 42.266C59.5794 43.1153 60.3798 43.9973 61.4251 44.912L66.3741 49.273C68.0074 50.645 69.3958 52.262 70.5391 54.124C71.7151 55.9533 72.3031 58.1747 72.3031 60.788C72.3031 62.6827 71.8784 64.365 71.0291 65.835C70.2124 67.305 69.0528 68.4647 67.5501 69.314C66.0801 70.1307 64.3488 70.539 62.3561 70.539Z" fill="#F7922F"/>
</svg>
