<svg width="95" height="95" viewBox="0 0 95 95" fill="none" xmlns="http://www.w3.org/2000/svg">
<circle cx="47.5" cy="47.5" r="47.5" fill="#F7922F" fill-opacity="0.2"/>
<g clip-path="url(#clip0_200_2)">
<path d="M59.1294 54.6382C59.1294 56.2014 58.7275 57.6996 57.9236 59.1325C57.1198 60.533 55.9307 61.7054 54.3565 62.6499C52.8158 63.5943 50.9569 64.1317 48.7798 64.262V68.219H46.0668V64.262C43.0189 64.0015 40.5403 63.0569 38.6312 61.4286C36.722 59.7676 35.7507 57.667 35.7172 55.1267H40.5906C40.7246 56.4945 41.2437 57.6832 42.148 58.6929C43.0859 59.7025 44.3921 60.3376 46.0668 60.5981V48.3851C43.8227 47.8315 42.0141 47.2615 40.6408 46.6753C39.2676 46.0891 38.0953 45.1772 37.124 43.9396C36.1527 42.7021 35.667 41.0411 35.667 38.9567C35.667 36.3187 36.6048 34.1367 38.4805 32.4106C40.3896 30.6845 42.9184 29.7237 46.0668 29.5283V25.4736H48.7798V29.5283C51.6268 29.7563 53.9211 30.6519 55.6628 32.2152C57.4045 33.7459 58.4093 35.7488 58.6773 38.2239H53.8039C53.6365 37.0841 53.1172 36.0582 52.2464 35.1463C51.3756 34.2018 50.2201 33.583 48.7798 33.2899V45.2098C50.9904 45.7634 52.7824 46.3334 54.1556 46.9196C55.5623 47.4732 56.7346 48.3689 57.6724 49.6064C58.6437 50.844 59.1294 52.5213 59.1294 54.6382ZM40.3394 38.7125C40.3394 40.3083 40.825 41.5296 41.7964 42.3764C42.7677 43.2231 44.1912 43.9234 46.0668 44.477V33.1922C44.3251 33.355 42.9352 33.9087 41.8968 34.8532C40.8585 35.7651 40.3394 37.0515 40.3394 38.7125ZM48.7798 60.6469C50.5885 60.4515 51.9952 59.8165 53 58.7417C54.0384 57.667 54.5575 56.3806 54.5575 54.8824C54.5575 53.2866 54.0551 52.0653 53.0503 51.2185C52.0455 50.3392 50.622 49.639 48.7798 49.1179V60.6469Z" fill="#F7922F"/>
</g>
<defs>
<clipPath id="clip0_200_2">
<rect width="50" height="50" fill="white" transform="translate(23 23)"/>
</clipPath>
</defs>
</svg>
