<svg width="32" height="32" viewBox="0 0 32 32" fill="none" xmlns="http://www.w3.org/2000/svg">
<path d="M28.9333 17.8L27.6 19.1333L24.8666 16.4L26.2 15.0667C26.3371 14.9323 26.5214 14.857 26.7133 14.857C26.9053 14.857 27.0896 14.9323 27.2266 15.0667L28.9333 16.7733C29.2133 17.0533 29.2133 17.52 28.9333 17.8ZM16 25.2533L24.08 17.1733L26.8133 19.9067L18.7466 28H16V25.2533ZM16 18.6667C10.1066 18.6667 5.33331 21.0533 5.33331 24V26.6667H13.3333V24.1467L18.6666 18.8133C17.7866 18.7067 16.8933 18.6667 16 18.6667ZM16 5.33333C14.5855 5.33333 13.2289 5.89523 12.2287 6.89543C11.2285 7.89562 10.6666 9.25217 10.6666 10.6667C10.6666 12.0811 11.2285 13.4377 12.2287 14.4379C13.2289 15.4381 14.5855 16 16 16C17.4145 16 18.771 15.4381 19.7712 14.4379C20.7714 13.4377 21.3333 12.0811 21.3333 10.6667C21.3333 9.25217 20.7714 7.89562 19.7712 6.89543C18.771 5.89523 17.4145 5.33333 16 5.33333Z" fill="black"/>
</svg>
