<svg width="32" height="23" viewBox="0 0 32 23" fill="none" xmlns="http://www.w3.org/2000/svg">
<path d="M16 0C8.72727 0 2.51636 4.33515 0 10.4545C2.51636 16.5739 8.72727 20.9091 16 20.9091C16.5236 20.9091 17.0473 20.9091 17.5709 20.8394C17.4961 20.4016 17.4572 19.9588 17.4545 19.5152C17.4545 18.7345 17.5709 17.9539 17.8036 17.2012C17.2073 17.3406 16.6109 17.4242 16 17.4242C11.9855 17.4242 8.72727 14.3018 8.72727 10.4545C8.72727 6.60727 11.9855 3.48485 16 3.48485C20.0145 3.48485 23.2727 6.60727 23.2727 10.4545C23.2727 10.8588 23.2291 11.277 23.1564 11.6812C24.1164 11.3327 25.1491 11.1515 26.1818 11.1515C27.8836 11.1515 29.5418 11.6255 30.9673 12.5455C31.36 11.8485 31.7091 11.1515 32 10.4545C29.4836 4.33515 23.2727 0 16 0ZM16 6.27273C13.5855 6.27273 11.6364 8.14061 11.6364 10.4545C11.6364 12.7685 13.5855 14.6364 16 14.6364C18.4145 14.6364 20.3636 12.7685 20.3636 10.4545C20.3636 8.14061 18.4145 6.27273 16 6.27273ZM24.7273 14.6364V17.4242H30.5455V20.2121H24.7273V23L20.3636 18.8182L24.7273 14.6364Z" fill="black"/>
</svg>
